<mxfile host="app.diagrams.net" modified="2021-08-10T06:45:59.472Z" agent="5.0 (Windows NT 10.0; Win64; x64) AppleWebKit/537.36 (KHTML, like Gecko) Chrome/92.0.4515.131 Safari/537.36" etag="JZcTpABsk1hb8XF2juc9" version="14.9.5" type="github" pages="2">
  <diagram id="LA_1q_FeN5JSvNbhbNaQ" name="UML">
    <mxGraphModel dx="1038" dy="528" grid="1" gridSize="10" guides="1" tooltips="1" connect="1" arrows="1" fold="1" page="1" pageScale="1" pageWidth="850" pageHeight="1100" math="0" shadow="0">
      <root>
        <mxCell id="pEQn3JYHp4gPDKHJaYoP-0" />
        <mxCell id="pEQn3JYHp4gPDKHJaYoP-1" parent="pEQn3JYHp4gPDKHJaYoP-0" />
        <mxCell id="8rcJnm4jqc8mO6BCxgWC-0" value="User" style="shape=umlActor;verticalLabelPosition=bottom;verticalAlign=top;html=1;" vertex="1" parent="pEQn3JYHp4gPDKHJaYoP-1">
          <mxGeometry x="60" y="50" width="30" height="60" as="geometry" />
        </mxCell>
        <mxCell id="8rcJnm4jqc8mO6BCxgWC-1" value="Member" style="shape=umlActor;verticalLabelPosition=bottom;verticalAlign=top;html=1;" vertex="1" parent="pEQn3JYHp4gPDKHJaYoP-1">
          <mxGeometry x="60" y="310" width="30" height="60" as="geometry" />
        </mxCell>
        <mxCell id="8rcJnm4jqc8mO6BCxgWC-2" value="Kasir" style="shape=umlActor;verticalLabelPosition=bottom;verticalAlign=top;html=1;" vertex="1" parent="pEQn3JYHp4gPDKHJaYoP-1">
          <mxGeometry x="730" y="50" width="30" height="60" as="geometry" />
        </mxCell>
        <mxCell id="8rcJnm4jqc8mO6BCxgWC-5" value="Admin" style="shape=umlActor;verticalLabelPosition=bottom;verticalAlign=top;html=1;" vertex="1" parent="pEQn3JYHp4gPDKHJaYoP-1">
          <mxGeometry x="730" y="310" width="30" height="60" as="geometry" />
        </mxCell>
        <mxCell id="8rcJnm4jqc8mO6BCxgWC-8" value="Melihat Daftar Menu" style="ellipse;whiteSpace=wrap;html=1;" vertex="1" parent="pEQn3JYHp4gPDKHJaYoP-1">
          <mxGeometry x="150" y="55" width="100" height="50" as="geometry" />
        </mxCell>
        <mxCell id="8rcJnm4jqc8mO6BCxgWC-9" value="Beranda" style="ellipse;whiteSpace=wrap;html=1;" vertex="1" parent="pEQn3JYHp4gPDKHJaYoP-1">
          <mxGeometry x="150" y="210" width="100" height="50" as="geometry" />
        </mxCell>
        <mxCell id="8rcJnm4jqc8mO6BCxgWC-10" value="Mendaftar Akun" style="ellipse;whiteSpace=wrap;html=1;" vertex="1" parent="pEQn3JYHp4gPDKHJaYoP-1">
          <mxGeometry x="150" y="130" width="100" height="50" as="geometry" />
        </mxCell>
        <mxCell id="8rcJnm4jqc8mO6BCxgWC-11" value="Login Akun" style="ellipse;whiteSpace=wrap;html=1;" vertex="1" parent="pEQn3JYHp4gPDKHJaYoP-1">
          <mxGeometry x="150" y="310" width="100" height="50" as="geometry" />
        </mxCell>
        <mxCell id="8rcJnm4jqc8mO6BCxgWC-12" value="Memesan Menu" style="ellipse;whiteSpace=wrap;html=1;" vertex="1" parent="pEQn3JYHp4gPDKHJaYoP-1">
          <mxGeometry x="150" y="380" width="100" height="50" as="geometry" />
        </mxCell>
        <mxCell id="8rcJnm4jqc8mO6BCxgWC-13" value="Tracking Pemesanan" style="ellipse;whiteSpace=wrap;html=1;" vertex="1" parent="pEQn3JYHp4gPDKHJaYoP-1">
          <mxGeometry x="150" y="525" width="100" height="50" as="geometry" />
        </mxCell>
        <mxCell id="8rcJnm4jqc8mO6BCxgWC-15" value="Melihat Daftar Menu" style="ellipse;whiteSpace=wrap;html=1;" vertex="1" parent="pEQn3JYHp4gPDKHJaYoP-1">
          <mxGeometry x="150" y="450" width="100" height="50" as="geometry" />
        </mxCell>
        <mxCell id="8rcJnm4jqc8mO6BCxgWC-16" value="Konfirmasi Pembayaran" style="ellipse;whiteSpace=wrap;html=1;" vertex="1" parent="pEQn3JYHp4gPDKHJaYoP-1">
          <mxGeometry x="590" y="55" width="100" height="50" as="geometry" />
        </mxCell>
        <mxCell id="8rcJnm4jqc8mO6BCxgWC-17" value="List Transaksi" style="ellipse;whiteSpace=wrap;html=1;" vertex="1" parent="pEQn3JYHp4gPDKHJaYoP-1">
          <mxGeometry x="590" y="130" width="100" height="50" as="geometry" />
        </mxCell>
        <mxCell id="8rcJnm4jqc8mO6BCxgWC-18" value="Mengelola Data Menu" style="ellipse;whiteSpace=wrap;html=1;" vertex="1" parent="pEQn3JYHp4gPDKHJaYoP-1">
          <mxGeometry x="590" y="310" width="100" height="50" as="geometry" />
        </mxCell>
        <mxCell id="8rcJnm4jqc8mO6BCxgWC-19" value="Mengelola Data Member" style="ellipse;whiteSpace=wrap;html=1;" vertex="1" parent="pEQn3JYHp4gPDKHJaYoP-1">
          <mxGeometry x="590" y="380" width="100" height="50" as="geometry" />
        </mxCell>
        <mxCell id="8rcJnm4jqc8mO6BCxgWC-20" value="Monitor Laporan Transaksi" style="ellipse;whiteSpace=wrap;html=1;" vertex="1" parent="pEQn3JYHp4gPDKHJaYoP-1">
          <mxGeometry x="590" y="450" width="100" height="50" as="geometry" />
        </mxCell>
        <mxCell id="8rcJnm4jqc8mO6BCxgWC-22" value="Monitor Tracking Pemesanan" style="ellipse;whiteSpace=wrap;html=1;" vertex="1" parent="pEQn3JYHp4gPDKHJaYoP-1">
          <mxGeometry x="590" y="520" width="100" height="50" as="geometry" />
        </mxCell>
      </root>
    </mxGraphModel>
  </diagram>
  <diagram id="snM-_qCzK27qmWPHGGew" name="PROSES">
    <mxGraphModel dx="1038" dy="528" grid="1" gridSize="10" guides="1" tooltips="1" connect="1" arrows="1" fold="1" page="1" pageScale="1" pageWidth="850" pageHeight="1100" math="0" shadow="0">
      <root>
        <mxCell id="0" />
        <mxCell id="1" parent="0" />
        <mxCell id="-hK-mYvXqwFmGRsZHm5s-20" value="User" style="swimlane;startSize=23;" vertex="1" parent="1">
          <mxGeometry y="30" width="240" height="360" as="geometry" />
        </mxCell>
        <mxCell id="-hK-mYvXqwFmGRsZHm5s-23" value="" style="ellipse;html=1;shape=startState;fillColor=#000000;strokeColor=#ff0000;" vertex="1" parent="-hK-mYvXqwFmGRsZHm5s-20">
          <mxGeometry x="105" y="40" width="30" height="30" as="geometry" />
        </mxCell>
        <mxCell id="-hK-mYvXqwFmGRsZHm5s-24" value="" style="edgeStyle=orthogonalEdgeStyle;html=1;verticalAlign=bottom;endArrow=open;endSize=8;strokeColor=#ff0000;" edge="1" source="-hK-mYvXqwFmGRsZHm5s-23" parent="-hK-mYvXqwFmGRsZHm5s-20">
          <mxGeometry relative="1" as="geometry">
            <mxPoint x="120" y="130" as="targetPoint" />
          </mxGeometry>
        </mxCell>
        <mxCell id="-hK-mYvXqwFmGRsZHm5s-34" value="Registrasi pelanggan" style="rounded=1;whiteSpace=wrap;html=1;absoluteArcSize=1;arcSize=14;strokeWidth=2;" vertex="1" parent="-hK-mYvXqwFmGRsZHm5s-20">
          <mxGeometry x="48.75" y="140" width="142.5" height="30" as="geometry" />
        </mxCell>
      </root>
    </mxGraphModel>
  </diagram>
</mxfile>
